<svg width="39" height="33" viewBox="0 0 39 33" fill="none" xmlns="http://www.w3.org/2000/svg">
<path d="M38.5 16.5C38.5 25.2615 30.075 32.5 19.5 32.5C8.92504 32.5 0.5 25.2615 0.5 16.5C0.5 7.73848 8.92504 0.5 19.5 0.5C30.075 0.5 38.5 7.73848 38.5 16.5Z" stroke="#DAD7CD"/>
<path d="M19.5 10.0497L21.1376 14.1564L21.5142 15.1008H22.5309H26.861L23.64 17.0076L22.5354 17.6616L23.0109 18.854L24.4113 22.366L20.2641 19.9109L19.5 19.4585L18.7359 19.9109L14.5887 22.366L15.9891 18.854L16.4646 17.6616L15.36 17.0076L12.139 15.1008H16.4691H17.4858L17.8624 14.1564L19.5 10.0497Z" fill="#D9D9D9" stroke="#DAD7CD" stroke-width="3"/>
</svg>
