<svg width="46" height="41" viewBox="0 0 46 41" fill="none" xmlns="http://www.w3.org/2000/svg">
<path d="M28.3876 13.9521L21.75 20.4L19.4874 18.2021M23.5 3.40002C15.768 3.40002 9.5 9.48895 9.5 17C9.5 24.5111 15.768 30.6 23.5 30.6C31.232 30.6 37.5 24.5111 37.5 17C37.5 9.48895 31.232 3.40002 23.5 3.40002Z" stroke="#DAD7CD" stroke-width="2" stroke-linecap="round" stroke-linejoin="round"/>
<path d="M8.11279 21.25L12.8484 24.6384L17.883 28.2407L9.93696 38.7206L8.82859 29.94L0.166725 31.7299L8.11279 21.25Z" fill="#D9D9D9"/>
<path d="M27.875 29.6567L32.6108 26.2687L37.6457 22.6666L45.5911 33.1471L36.6302 31.5705L35.8204 40.1372L27.875 29.6567Z" fill="#D9D9D9"/>
</svg>
