<svg width="42" height="29" viewBox="0 0 42 29" fill="none" xmlns="http://www.w3.org/2000/svg">
<path d="M14.7931 22.8483C14.7931 25.4198 12.3229 27.5044 9.27586 27.5044C6.22877 27.5044 3.75862 25.4198 3.75862 22.8483M14.7931 22.8483C14.7931 20.2768 12.3229 18.1922 9.27586 18.1922C6.22877 18.1922 3.75862 20.2768 3.75862 22.8483M14.7931 22.8483H27.2069M3.75862 22.8483H1V2.89575C1 2.34347 1.44772 1.89575 2 1.89575H27.2069V22.8483M39.6207 22.8483C39.6207 25.4198 37.1505 27.5044 34.1034 27.5044C31.0564 27.5044 28.5862 25.4198 28.5862 22.8483M39.6207 22.8483C39.6207 20.2768 37.1505 18.1922 34.1034 18.1922C31.0564 18.1922 28.5862 20.2768 28.5862 22.8483M39.6207 22.8483H41V13.5361L34.1034 7.71591H27.2069V22.8483M28.5862 22.8483H27.2069" stroke="#DAD7CD" stroke-width="2" stroke-linecap="round" stroke-linejoin="round"/>
</svg>
