<svg xmlns="http://www.w3.org/2000/svg" viewBox="0 0 1440 320"><path fill="#67b6ed" fill-opacity="1" d="M0,192L34.3,192C68.6,192,137,192,206,165.3C274.3,139,343,85,411,53.3C480,21,549,11,617,42.7C685.7,75,754,149,823,154.7C891.4,160,960,96,1029,112C1097.1,128,1166,224,1234,229.3C1302.9,235,1371,149,1406,106.7L1440,64L1440,320L1405.7,320C1371.4,320,1303,320,1234,320C1165.7,320,1097,320,1029,320C960,320,891,320,823,320C754.3,320,686,320,617,320C548.6,320,480,320,411,320C342.9,320,274,320,206,320C137.1,320,69,320,34,320L0,320Z"></path></svg>